<svg height="512pt" viewBox="0 0 512 512" width="512pt" xmlns="http://www.w3.org/2000/svg"><path d="m192 0h128v153.28125h-128zm0 0" fill="#708299"/><g fill="#f8d539"><path d="m0 256h64v32h-64zm0 0"/><path d="m448 256h64v32h-64zm0 0"/><path d="m47.675781 425.699219 45.253907-45.253907 22.628906 22.625-45.257813 45.257813zm0 0"/><path d="m240 448h32v64h-32zm0 0"/><path d="m396.460938 403.085938 22.628906-22.628907 45.253906 45.253907-22.625 22.628906zm0 0"/></g><path d="m320 92.222656c-41.109375-16.296875-86.890625-16.296875-128 0v61.058594h128zm0 0" fill="#68788e"/><path d="m400 256c0 79.527344-64.472656 144-144 144s-144-64.472656-144-144 64.472656-144 144-144 144 64.472656 144 144zm0 0" fill="#f8d539"/><path d="m256 352c-70.191406-.125-130.089844-50.796875-141.839844-120-9.910156 56.582031 14.75 113.640625 62.753906 145.1875 48.003907 31.546875 110.167969 31.546875 158.171876 0 48.003906-31.546875 72.664062-88.605469 62.753906-145.1875-11.75 69.203125-71.648438 119.875-141.839844 120zm0 0" fill="#f2c714"/><path d="m304 192h32v32h-32zm0 0" fill="#fff"/></svg>