<?xml version="1.0" encoding="iso-8859-1"?>
<!-- Generator: Adobe Illustrator 19.0.0, SVG Export Plug-In . SVG Version: 6.00 Build 0)  -->
<svg version="1.1" id="Capa_1" xmlns="http://www.w3.org/2000/svg" xmlns:xlink="http://www.w3.org/1999/xlink" x="0px" y="0px"
	 viewBox="0 0 469.333 469.333" style="enable-background:new 0 0 469.333 469.333;" xml:space="preserve">
<g>
	<g>
		<g>
			
				<rect x="67.295" y="343.483" transform="matrix(-0.7071 -0.7071 0.7071 -0.7071 -110.7076 695.2635)" width="42.69" height="54.155"/>
			<polygon points="54.4,374.613 54.4,374.613 54.4,374.613 			"/>
			<rect x="0" y="203.2" width="64" height="42.667"/>
			<path d="M298.667,113.813V11.2h-128v102.613c-38.187,22.187-64,63.36-64,110.72c0,70.72,57.28,128,128,128s128-57.28,128-128
				C362.667,177.173,336.853,135.893,298.667,113.813z"/>
			<rect x="405.333" y="203.2" width="64" height="42.667"/>
			<polygon points="346.56,366.507 346.56,366.507 384.853,404.8 415.04,374.613 376.747,336.32 			"/>
			<rect x="213.333" y="395.2" width="42.667" height="62.933"/>
		</g>
	</g>
</g>
<g>
</g>
<g>
</g>
<g>
</g>
<g>
</g>
<g>
</g>
<g>
</g>
<g>
</g>
<g>
</g>
<g>
</g>
<g>
</g>
<g>
</g>
<g>
</g>
<g>
</g>
<g>
</g>
<g>
</g>
</svg>
